<svg width="1440" height="1024" viewBox="0 0 1440 1024" fill="none" xmlns="http://www.w3.org/2000/svg">
<g clip-path="url(#clip0_475_339)">
<rect width="1440" height="1024" fill="black"/>
<g filter="url(#filter0_f_475_339)">
<path d="M54.195 480.407C97.551 415.941 36.13 350.235 0 325.441L136.138 257.655L474.748 407.423C501.195 489.405 380.449 659.569 227.619 674.965C74.7891 690.362 0 560.99 54.195 480.407Z" fill="#30543C"/>
</g>
<g filter="url(#filter1_f_475_339)">
<path d="M582.088 314.788C584.401 384.728 405.343 856.123 405.343 856.123L758.118 480.108C758.118 480.108 1082.71 646.862 1095.81 616.315L881.538 274.334L647.339 188.015L582.088 314.788Z" fill="#1A2418"/>
</g>
<g filter="url(#filter2_f_475_339)">
<path d="M208.998 408.535L23.1011 643.11C8.45322 661.594 2.70731 685.599 7.39857 708.712L34.7481 843.455C41.3639 876.05 67.4562 901.151 100.282 906.5L187.159 920.658C241.565 929.524 288.571 881.98 280.567 827.441C270.409 758.226 261.003 681.111 261.003 636.468C261.003 595.761 285.595 540.106 314.148 490.001C338.912 446.544 311.436 387.957 261.505 385.024C241.216 383.833 221.621 392.607 208.998 408.535Z" fill="#131615"/>
</g>
<g filter="url(#filter3_f_475_339)">
<path d="M694.764 774.913C757.809 862.457 669.824 978.145 643.465 1000.59L335.796 703.27L658.918 578.478C644.598 607.48 631.719 687.37 694.764 774.913Z" fill="#19372A"/>
</g>
<g filter="url(#filter4_f_475_339)">
<path d="M815.768 675.927C740.155 662.649 724.142 581.214 725.587 561.951L1028.21 572.149H1138.47L933.696 745.112C925.892 727.582 891.381 689.204 815.768 675.927Z" fill="#3A3A3A"/>
</g>
<g filter="url(#filter5_f_475_339)">
<path d="M1130.85 840.019C1070.31 883.862 698.261 503.801 683.47 490.137L1053.24 -0.000331311L1012.92 303.534C993.466 297.44 1191.39 796.175 1130.85 840.019Z" fill="#0D0E0E"/>
</g>
<g filter="url(#filter6_f_475_339)">
<path d="M662.348 516.219C606.552 330.859 864.954 261.674 889.884 248.877C855.546 293.027 700.79 540.614 720.662 582.805C712.28 586.204 681.526 579.932 662.348 516.219Z" fill="#3D4641"/>
</g>
<g filter="url(#filter7_f_475_339)">
<path d="M1222.35 405.532C1166.55 220.172 1424.95 150.987 1449.88 138.189C1415.55 182.34 1260.79 429.927 1280.66 472.118C1272.28 475.517 1241.53 469.245 1222.35 405.532Z" fill="#183E27"/>
</g>
</g>
<defs>
<filter id="filter0_f_475_339" x="-330" y="-72.3447" width="1138.4" height="1078.57" filterUnits="userSpaceOnUse" color-interpolation-filters="sRGB">
<feFlood flood-opacity="0" result="BackgroundImageFix"/>
<feBlend mode="normal" in="SourceGraphic" in2="BackgroundImageFix" result="shape"/>
<feGaussianBlur stdDeviation="165" result="effect1_foregroundBlur_475_339"/>
</filter>
<filter id="filter1_f_475_339" x="65.3433" y="-151.985" width="1370.47" height="1348.11" filterUnits="userSpaceOnUse" color-interpolation-filters="sRGB">
<feFlood flood-opacity="0" result="BackgroundImageFix"/>
<feBlend mode="normal" in="SourceGraphic" in2="BackgroundImageFix" result="shape"/>
<feGaussianBlur stdDeviation="170" result="effect1_foregroundBlur_475_339"/>
</filter>
<filter id="filter2_f_475_339" x="-231.201" y="147.917" width="791.596" height="1010.81" filterUnits="userSpaceOnUse" color-interpolation-filters="sRGB">
<feFlood flood-opacity="0" result="BackgroundImageFix"/>
<feBlend mode="normal" in="SourceGraphic" in2="BackgroundImageFix" result="shape"/>
<feGaussianBlur stdDeviation="118.5" result="effect1_foregroundBlur_475_339"/>
</filter>
<filter id="filter3_f_475_339" x="98.7964" y="341.478" width="855.261" height="896.108" filterUnits="userSpaceOnUse" color-interpolation-filters="sRGB">
<feFlood flood-opacity="0" result="BackgroundImageFix"/>
<feBlend mode="normal" in="SourceGraphic" in2="BackgroundImageFix" result="shape"/>
<feGaussianBlur stdDeviation="118.5" result="effect1_foregroundBlur_475_339"/>
</filter>
<filter id="filter4_f_475_339" x="488.5" y="324.951" width="886.965" height="657.161" filterUnits="userSpaceOnUse" color-interpolation-filters="sRGB">
<feFlood flood-opacity="0" result="BackgroundImageFix"/>
<feBlend mode="normal" in="SourceGraphic" in2="BackgroundImageFix" result="shape"/>
<feGaussianBlur stdDeviation="118.5" result="effect1_foregroundBlur_475_339"/>
</filter>
<filter id="filter5_f_475_339" x="446.47" y="-237" width="932.936" height="1317.54" filterUnits="userSpaceOnUse" color-interpolation-filters="sRGB">
<feFlood flood-opacity="0" result="BackgroundImageFix"/>
<feBlend mode="normal" in="SourceGraphic" in2="BackgroundImageFix" result="shape"/>
<feGaussianBlur stdDeviation="118.5" result="effect1_foregroundBlur_475_339"/>
</filter>
<filter id="filter6_f_475_339" x="414.48" y="8.87695" width="715.403" height="814.659" filterUnits="userSpaceOnUse" color-interpolation-filters="sRGB">
<feFlood flood-opacity="0" result="BackgroundImageFix"/>
<feBlend mode="normal" in="SourceGraphic" in2="BackgroundImageFix" result="shape"/>
<feGaussianBlur stdDeviation="120" result="effect1_foregroundBlur_475_339"/>
</filter>
<filter id="filter7_f_475_339" x="974.48" y="-101.811" width="715.403" height="814.659" filterUnits="userSpaceOnUse" color-interpolation-filters="sRGB">
<feFlood flood-opacity="0" result="BackgroundImageFix"/>
<feBlend mode="normal" in="SourceGraphic" in2="BackgroundImageFix" result="shape"/>
<feGaussianBlur stdDeviation="120" result="effect1_foregroundBlur_475_339"/>
</filter>
<clipPath id="clip0_475_339">
<rect width="1440" height="1024" fill="white"/>
</clipPath>
</defs>
</svg>
