<svg width="299" height="405" viewBox="0 0 299 405" fill="none" xmlns="http://www.w3.org/2000/svg">
<path d="M289.5 149.607C289.5 192.298 270.421 230.53 240.33 256.228L240.314 256.242C238.303 257.96 236.773 259.266 235.633 260.393C234.487 261.525 233.703 262.504 233.208 263.579C232.714 264.649 232.477 265.813 232.359 267.296C232.243 268.766 232.243 270.586 232.243 272.971V272.993V353.686C232.243 363.673 232.242 371.114 231.473 376.834C230.707 382.54 229.185 386.46 226.197 389.45C223.21 392.44 219.293 393.963 213.592 394.73C207.876 395.499 200.441 395.5 190.461 395.5H108.539C98.559 395.5 91.1243 395.499 85.4084 394.73C79.7069 393.963 75.7905 392.44 72.8028 389.45C69.8151 386.46 68.2932 382.54 67.5266 376.834C66.7581 371.114 66.7571 363.673 66.7571 353.686V272.993V272.971C66.7571 270.586 66.7571 268.767 66.6407 267.296C66.5233 265.813 66.2858 264.649 65.7925 263.579C65.2969 262.504 64.5133 261.525 63.3675 260.393C62.2274 259.266 60.6976 257.96 58.6864 256.242L58.6703 256.228C28.5787 230.53 9.5 192.298 9.5 149.607C9.5 72.2277 72.1805 9.5 149.5 9.5C226.82 9.5 289.5 72.2277 289.5 149.607Z" fill="white" stroke="white"/>
<path d="M298.25 147.147C298.25 191.941 280.834 231.997 249.148 258.831L249.123 258.852C247.086 260.578 245.525 261.899 244.361 263.04C243.188 264.188 242.369 265.199 241.85 266.318C241.335 267.429 241.091 268.633 240.972 270.141C240.853 271.632 240.853 273.474 240.853 275.869V275.902V360.718C240.853 381.541 237.326 391.715 230.96 397.98C227.829 401.063 223.714 402.646 217.67 403.446C211.605 404.248 203.71 404.25 193.085 404.25H105.915C95.2901 404.25 87.3954 404.248 81.3303 403.446C75.2855 402.646 71.1709 401.063 68.0396 397.98C61.6739 391.715 58.1467 381.541 58.1467 360.718V275.902V275.869C58.1467 273.474 58.1467 271.632 58.0285 270.141C57.9088 268.633 57.6651 267.429 57.1498 266.318C56.631 265.199 55.8118 264.188 54.6391 263.04C53.4748 261.899 51.9145 260.578 49.8769 258.852L49.852 258.831C18.1657 231.997 0.75 191.941 0.75 147.147C0.75 66.3053 67.3364 0.75 149.5 0.75C231.664 0.75 298.25 66.3053 298.25 147.147Z" stroke="#B5B5B5" stroke-width="1.5"/>
<path d="M174 69.7931C136.789 41.2353 86.6667 49.2934 72 58.7934C85.6 73.5937 120 86.9599 135.5 91.793L187 110.293L160 119.793L138.364 104.477C125.61 95.4498 107.997 98.1494 98.5333 110.583L90 121.793L87.7175 120.487C82.6992 117.616 76.3377 118.828 72.7261 123.342C68.5262 128.592 69.5865 136.29 75.0493 140.209L113.5 167.793V207.293L159.434 239.397C159.774 239.635 160.242 239.629 160.582 239.39C183.787 223.119 170.922 206.574 161.5 200.293L139.5 187.793L138 157.293L117.083 141.072C115.108 139.54 114.757 136.693 116.301 134.728C117.805 132.814 120.557 132.44 122.517 133.884L147.5 152.293V182.293L201 143.793C225.4 160.193 241.167 143.627 246 133.294C239.333 123.627 217 102.793 174 69.7931Z" fill="black"/>
<path d="M94 220.5L106.5 211.5V192.5L103.733 193.385C97.9346 195.241 94 200.631 94 206.719V220.5Z" fill="black"/>
<circle cx="216" cy="129" r="5" fill="white"/>
</svg>
