<svg width="30" height="25" viewBox="0 0 30 25" fill="none" xmlns="http://www.w3.org/2000/svg">
<path d="M9.28537 24.2344C20.4263 24.2344 26.5194 15.0043 26.5194 7.00036C26.5194 6.73905 26.5135 6.47815 26.5018 6.21768C27.6873 5.35827 28.7104 4.29477 29.5232 3.07691C28.4176 3.5662 27.2451 3.88759 26.0445 4.03045C27.3088 3.27333 28.2549 2.08258 28.7066 0.679879C27.5178 1.38521 26.2173 1.88231 24.8611 2.14976C23.9484 1.17626 22.7399 0.531211 21.4232 0.314692C20.1064 0.0981736 18.755 0.322293 17.5787 0.952277C16.4023 1.58226 15.4668 2.58289 14.9172 3.79889C14.3677 5.01489 14.2348 6.37828 14.5392 7.67751C12.1308 7.55724 9.77453 6.9317 7.62357 5.8415C5.4726 4.7513 3.57502 3.22083 2.05406 1.34949C1.27946 2.68282 1.04211 4.26124 1.39035 5.76341C1.73858 7.26558 2.64622 8.57857 3.92847 9.43508C2.96668 9.4074 2.02564 9.14888 1.1847 8.6813C1.1847 8.70642 1.1847 8.73155 1.1847 8.75919C1.18543 10.1577 1.66981 11.5129 2.55572 12.5951C3.44162 13.6772 4.67451 14.4196 6.04535 14.6965C5.15327 14.9402 4.21715 14.9759 3.30911 14.8008C3.69605 16.0034 4.44878 17.0552 5.46226 17.8095C6.47574 18.5637 7.6994 18.9828 8.96249 19.0081C6.81777 20.6897 4.1701 21.6016 1.44475 21.5974C0.961969 21.5977 0.479572 21.5701 0 21.5145C2.76998 23.2934 5.99336 24.2376 9.28537 24.2344Z" fill="white"/>
</svg>
